<svg xmlns="http://www.w3.org/2000/svg">

	<symbol id="logo" viewBox="0 0 84 44" fill="currentcolor">
		<path
			d='M.526 1.615h5.3v40.77h-5.3V1.615ZM28.831 40.638c-1.184.874-2.252 1.437-3.203 1.689-.932.252-1.796.379-2.592.379-1.184 0-2.233-.156-3.145-.466-.893-.33-1.65-.758-2.271-1.282a5.607 5.607 0 0 1-1.37-1.834 4.93 4.93 0 0 1-.465-2.068c0-.738.136-1.417.408-2.039a6.715 6.715 0 0 1 1.165-1.718 9.158 9.158 0 0 1 1.747-1.456 16.38 16.38 0 0 1 2.155-1.223 46.872 46.872 0 0 1-1.602-2.388 4.581 4.581 0 0 1-.64-2.33c0-.485.077-.98.232-1.485.175-.524.437-.99.787-1.398a4.208 4.208 0 0 1 1.368-.99c.563-.272 1.233-.407 2.01-.407.602 0 1.165.097 1.689.29.524.195.98.476 1.369.845.388.37.699.816.931 1.34.233.505.35 1.077.35 1.718 0 .815-.282 1.621-.845 2.417-.543.777-1.494 1.485-2.854 2.126l5.796 7.63a8.73 8.73 0 0 0 1.34-2.65c.31-1.01.494-2.291.553-3.844h2.271c-.097 1.048-.3 1.99-.611 2.825a13.05 13.05 0 0 1-.99 2.213c-.35.64-.7 1.174-1.049 1.601-.33.408-.582.71-.757.903l2.65 3.35H30.17l-1.34-1.748Zm-5.27-17.735c-.428 0-.797.078-1.107.233-.291.136-.534.32-.728.553-.194.233-.34.495-.437.786a3.376 3.376 0 0 0-.117.874c0 .68.214 1.35.641 2.01.427.64.951 1.349 1.573 2.125a5.788 5.788 0 0 0 1.66-1.398c.252-.33.456-.698.611-1.106a3.364 3.364 0 0 0 .146-2.184 2.87 2.87 0 0 0-.379-.903 2.288 2.288 0 0 0-.728-.699c-.291-.194-.67-.291-1.136-.291Zm-1.573 8.736c-1.417.738-2.398 1.466-2.941 2.185a3.958 3.958 0 0 0-.787 2.387c0 .796.165 1.505.495 2.126.33.602.758 1.117 1.282 1.544a6.397 6.397 0 0 0 1.776.99c.66.213 1.31.32 1.951.32.155 0 .389-.01.7-.029a9.73 9.73 0 0 0 1.106-.204 6.876 6.876 0 0 0 1.252-.437 5.086 5.086 0 0 0 1.281-.815l-6.115-8.067ZM38.627 22c0-2.213.407-4.562 1.223-7.047.854-2.485 2.174-4.757 3.96-6.815 1.787-2.097 4.058-3.824 6.815-5.183 2.757-1.36 6.057-2.039 9.901-2.039 3.883 0 7.242.699 10.076 2.097 2.874 1.359 5.242 3.087 7.106 5.183 1.864 2.097 3.242 4.388 4.135 6.873.893 2.446 1.34 4.757 1.34 6.931 0 1.437-.214 2.951-.64 4.543-.39 1.592-.99 3.184-1.806 4.776-.777 1.553-1.786 3.048-3.029 4.485-1.242 1.398-2.718 2.64-4.427 3.727-1.67 1.087-3.572 1.961-5.707 2.621-2.097.621-4.446.932-7.048.932-3.844 0-7.144-.68-9.901-2.038-2.757-1.398-5.028-3.145-6.815-5.242-1.786-2.097-3.106-4.369-3.96-6.815-.816-2.485-1.223-4.815-1.223-6.989Zm5.708 0c0 2.718.407 5.223 1.223 7.514.854 2.252 2 4.193 3.436 5.824a16.266 16.266 0 0 0 5.184 3.844c1.98.893 4.135 1.34 6.465 1.34 2.29 0 4.446-.447 6.465-1.34a16.55 16.55 0 0 0 5.358-3.844c1.553-1.631 2.776-3.573 3.67-5.825.892-2.29 1.339-4.795 1.339-7.513s-.447-5.203-1.34-7.455c-.893-2.291-2.116-4.252-3.669-5.883a15.831 15.831 0 0 0-5.358-3.785c-2.02-.932-4.174-1.398-6.465-1.398-2.33 0-4.485.466-6.465 1.398a15.54 15.54 0 0 0-5.184 3.785c-1.437 1.631-2.582 3.592-3.436 5.883-.816 2.252-1.223 4.737-1.223 7.455Z' />
	</symbol>
	<symbol id="tg" viewBox="0 0 30 30" fill="currentcolor">
		<path
			d="M15 0C6.7242 0 0 6.7242 0 15C0 23.2758 6.72331 30 15 30C23.2758 30 30 23.2767 30 15C30 6.7242 23.2758 0 15 0ZM15 1.30377C22.5721 1.30377 28.6962 7.42875 28.6962 15C28.6962 22.5721 22.5713 28.6962 15 28.6962C7.42786 28.6962 1.30377 22.5713 1.30377 15C1.30377 7.42786 7.42875 1.30377 15 1.30377ZM20.9267 7.84918C20.4806 7.84918 19.9796 7.95274 19.3928 8.16428C18.4829 8.49177 7.77483 13.0386 6.55603 13.5555C5.85944 13.852 4.56275 14.4026 4.56275 15.7161C4.56275 16.587 5.07258 17.2101 6.0763 17.5686C6.61622 17.7598 7.89963 18.1492 8.64312 18.3546C8.95911 18.4413 9.29457 18.4847 9.63976 18.4847C10.3142 18.4847 10.994 18.3165 11.5268 18.02C11.5215 18.1298 11.5242 18.2413 11.5374 18.3519C11.6171 19.0361 12.0402 19.6796 12.666 20.0752C14.0931 21.014 15.5114 21.9662 16.9207 22.9315C17.6226 23.4325 18.3988 23.698 19.1627 23.698C20.6231 23.698 21.1135 22.1889 21.3489 21.4649C21.6923 20.4125 22.974 11.8579 23.1191 10.3496C23.2174 9.31581 22.7863 8.46433 21.9667 8.07223C21.6414 7.92026 21.2858 7.844 20.9267 7.84918ZM20.9267 9.15295C21.1064 9.15295 21.2666 9.18304 21.402 9.24943C21.71 9.39724 21.8676 9.72739 21.8198 10.2257C21.6622 11.872 20.3833 20.223 20.1106 21.0613C19.877 21.7773 19.6309 22.3933 19.1636 22.3933C18.6945 22.3933 18.1829 22.2287 17.6784 21.8685C17.1738 21.5082 13.8263 19.2636 13.3617 18.9706C12.9545 18.7139 12.5235 18.0731 13.1306 17.4535C13.6307 16.9437 17.4252 13.2599 17.7492 12.9368C17.9899 12.6943 17.8775 12.4031 17.6403 12.4031C17.5363 12.4088 17.4374 12.4504 17.3606 12.5208C16.9641 12.8439 11.4357 16.5436 10.9568 16.8402C10.6399 17.0375 10.1487 17.18 9.63976 17.18C9.42202 17.18 9.20252 17.1535 8.99097 17.0951C8.1595 16.8647 7.33428 16.6124 6.5162 16.3383C6.04089 16.1683 5.8683 16.0073 5.8683 15.7161C5.8683 15.3027 6.45247 15.0168 7.06674 14.7557C7.71641 14.4796 18.9565 9.70614 19.8354 9.39016C20.2425 9.24234 20.6143 9.15295 20.9267 9.15295Z" />
	</symbol>
	<symbol id="menu" viewBox="0 0 30 20" fill="currentcolor">
		<path
			d='M30 2C30 0.89543 29.2538 0 28.3333 0H1.66667C0.746192 0 -1.19209e-06 0.89543 -1.19209e-06 2C-1.19209e-06 3.10457 0.746192 4 1.66667 4H28.3333C29.2538 4 30 3.10457 30 2ZM30 10C30 8.89543 29.2538 8 28.3333 8H1.66667C0.746192 8 -1.19209e-06 8.89543 -1.19209e-06 10C-1.19209e-06 11.1046 0.746192 12 1.66667 12H28.3333C29.2538 12 30 11.1046 30 10ZM30 18C30 16.8954 29.2538 16 28.3333 16H1.66667C0.746191 16 -1.19209e-06 16.8954 -1.19209e-06 18C-1.19209e-06 19.1046 0.746191 20 1.66667 20H28.3333C29.2538 20 30 19.1046 30 18Z' />
	</symbol>
</svg>