<svg xmlns="http://www.w3.org/2000/svg">
	<symbol id="logo" viewBox="0 0 84 44">
		<path
			d="M.526 1.615h5.3v40.77h-5.3V1.615zm28.305 39.023c-1.184.874-2.252 1.437-3.203 1.689-.932.252-1.796.379-2.592.379-1.184 0-2.233-.156-3.145-.466-.893-.33-1.65-.758-2.271-1.282a5.607 5.607 0 01-1.37-1.834 4.93 4.93 0 01-.465-2.068c0-.738.136-1.417.408-2.039a6.715 6.715 0 011.165-1.718 9.158 9.158 0 011.747-1.456 16.38 16.38 0 012.155-1.223 46.872 46.872 0 01-1.602-2.388 4.581 4.581 0 01-.64-2.33c0-.485.077-.98.232-1.485.175-.524.437-.99.787-1.398a4.208 4.208 0 011.368-.99c.563-.272 1.233-.407 2.01-.407.602 0 1.165.097 1.689.29.524.195.98.476 1.369.845.388.37.699.816.931 1.34.233.505.35 1.077.35 1.718 0 .815-.282 1.621-.845 2.417-.543.777-1.494 1.485-2.854 2.126l5.796 7.63a8.73 8.73 0 001.34-2.65c.31-1.01.494-2.291.553-3.844h2.271c-.097 1.048-.3 1.99-.611 2.825a13.05 13.05 0 01-.99 2.213c-.35.64-.7 1.174-1.049 1.601-.33.408-.582.71-.757.903l2.65 3.35H30.17l-1.34-1.748zm-5.27-17.735c-.428 0-.797.078-1.107.233-.291.136-.534.32-.728.553-.194.233-.34.495-.437.786a3.376 3.376 0 00-.117.874c0 .68.214 1.35.641 2.01.427.64.951 1.349 1.573 2.125a5.788 5.788 0 001.66-1.398c.252-.33.456-.698.611-1.106a3.364 3.364 0 00.146-2.184 2.87 2.87 0 00-.379-.903 2.288 2.288 0 00-.728-.699c-.291-.194-.67-.291-1.136-.291zm-1.573 8.736c-1.417.738-2.398 1.466-2.941 2.185a3.958 3.958 0 00-.787 2.387c0 .796.165 1.505.495 2.126.33.602.758 1.117 1.282 1.544a6.397 6.397 0 001.776.99c.66.213 1.31.32 1.951.32.155 0 .389-.01.7-.029a9.73 9.73 0 001.106-.204 6.876 6.876 0 001.252-.437 5.086 5.086 0 001.281-.815l-6.115-8.067zM38.627 22c0-2.213.407-4.562 1.223-7.047.854-2.485 2.174-4.757 3.96-6.815 1.787-2.097 4.058-3.824 6.815-5.183 2.757-1.36 6.057-2.039 9.901-2.039 3.883 0 7.242.699 10.076 2.097 2.874 1.359 5.242 3.087 7.106 5.183 1.864 2.097 3.242 4.388 4.135 6.873.893 2.446 1.34 4.757 1.34 6.931 0 1.437-.214 2.951-.64 4.543a21.874 21.874 0 01-1.806 4.776c-.777 1.553-1.786 3.048-3.029 4.485-1.242 1.398-2.718 2.64-4.427 3.727-1.67 1.087-3.572 1.961-5.707 2.621-2.097.621-4.446.932-7.048.932-3.844 0-7.144-.68-9.901-2.038-2.757-1.398-5.028-3.145-6.815-5.242-1.786-2.097-3.106-4.369-3.96-6.815-.816-2.485-1.223-4.815-1.223-6.989zm5.708 0c0 2.718.407 5.223 1.223 7.514.854 2.252 2 4.193 3.436 5.824a16.266 16.266 0 005.184 3.844c1.98.893 4.135 1.34 6.465 1.34 2.29 0 4.446-.447 6.465-1.34a16.55 16.55 0 005.358-3.844c1.553-1.631 2.776-3.573 3.67-5.825.892-2.29 1.339-4.795 1.339-7.513s-.447-5.203-1.34-7.455c-.893-2.291-2.116-4.252-3.669-5.883a15.831 15.831 0 00-5.358-3.785c-2.02-.932-4.174-1.398-6.465-1.398-2.33 0-4.485.466-6.465 1.398a15.54 15.54 0 00-5.184 3.785c-1.437 1.631-2.582 3.592-3.436 5.883-.816 2.252-1.223 4.737-1.223 7.455z" />
	</symbol>
	<symbol id="tg" viewBox="0 0 24 20">
		<path
			d="M23.92 2.518l-3.416 15.828-.002.006c-.149.642-.46 1.242-1.066 1.513-.609.272-1.26.097-1.815-.21l-.035-.02-4.78-3.452-2.061 1.948a2.017 2.017 0 01-1.554.718l-.73-.005.446-6.2 5.869-4.96-8.046 4.64-5.424-1.665c-.338-.105-.654-.257-.895-.479-.25-.23-.441-.564-.407-.972.032-.386.256-.69.506-.909.254-.222.59-.406.982-.558l.003-.002L21.568.145h.002c.631-.234 1.378-.217 1.908.295.517.5.617 1.27.443 2.078zm-5.15 2.886h-.006.006zm-.35-.801l-.01.01a.054.054 0 01.01-.01zm-.583-.25c.197-.128.404-.217.607-.263.197-.045.442-.06.677.021.255.088.586.345.572.796-.01.35-.235.595-.385.725l-.003.004-9.073 7.667-.265 3.694 2.723-2.574 5.637 4.071c.37.198.519.152.546.14.032-.015.185-.11.296-.58l3.415-15.818c.126-.585-.02-.79-.061-.83-.029-.027-.153-.113-.47.003l-.001.001L1.99 9c-.254.1-.421.195-.524.272.059.03.14.064.247.097l4.847 1.489 11.275-6.504zM1.352 9.38l.002-.002a.013.013 0 01-.002.002z" />
	</symbol>
	<symbol id="burger" viewBox="0 0 30 20">
		<path
			d="M30 2c0-1.105-.746-2-1.667-2H1.667C.747 0 0 .895 0 2s.746 2 1.667 2h26.666C29.253 4 30 3.105 30 2zm0 8c0-1.105-.746-2-1.667-2H1.667C.747 8 0 8.895 0 10s.746 2 1.667 2h26.666c.92 0 1.667-.895 1.667-2zm0 8c0-1.105-.746-2-1.667-2H1.667C.747 16 0 16.895 0 18s.746 2 1.667 2h26.666c.92 0 1.667-.895 1.667-2z" />
	</symbol>
</svg>